<?xml version="1.0" encoding="utf-8" standalone="no"?>
<!DOCTYPE svg PUBLIC "-//W3C//DTD SVG 1.1//EN"
  "http://www.w3.org/Graphics/SVG/1.1/DTD/svg11.dtd">
<svg xmlns:xlink="http://www.w3.org/1999/xlink" width="628.2pt" height="846pt" viewBox="0 0 628.2 846" xmlns="http://www.w3.org/2000/svg" version="1.1">
 <metadata>
  <rdf:RDF xmlns:dc="http://purl.org/dc/elements/1.1/" xmlns:cc="http://creativecommons.org/ns#" xmlns:rdf="http://www.w3.org/1999/02/22-rdf-syntax-ns#">
   <cc:Work>
    <dc:type rdf:resource="http://purl.org/dc/dcmitype/StillImage"/>
    <dc:date>2026-07-19T09:14:35.675385</dc:date>
    <dc:format>image/svg+xml</dc:format>
    <dc:creator>
     <cc:Agent>
      <dc:title>Matplotlib v3.10.9, https://matplotlib.org/</dc:title>
     </cc:Agent>
    </dc:creator>
   </cc:Work>
  </rdf:RDF>
 </metadata>
 <defs>
  <style type="text/css">*{stroke-linejoin: round; stroke-linecap: butt}</style>
 </defs>
 <g id="figure_1">
  <g id="patch_1">
   <path d="M 0 846 
L 628.2 846 
L 628.2 0 
L 0 0 
z
" style="fill: #fafaf7"/>
  </g>
  <g id="axes_1">
   <g id="line2d_1">
    <path d="M 56.304 120.852 
L 571.896 120.852 
" clip-path="url(#pffedb039d2)" style="fill: none; stroke: #dce4d7; stroke-width: 0.8; stroke-linecap: square"/>
   </g>
   <g id="line2d_2">
    <path d="M 56.304 264.996 
L 571.896 264.996 
" clip-path="url(#pffedb039d2)" style="fill: none; stroke: #dce4d7; stroke-width: 0.8; stroke-linecap: square"/>
   </g>
   <g id="line2d_3">
    <path d="M 56.304 409.14 
L 571.896 409.14 
" clip-path="url(#pffedb039d2)" style="fill: none; stroke: #dce4d7; stroke-width: 0.8; stroke-linecap: square"/>
   </g>
   <g id="line2d_4">
    <path d="M 56.304 664.164 
L 571.896 664.164 
" clip-path="url(#pffedb039d2)" style="fill: none; stroke: #dce4d7; stroke-width: 0.8; stroke-linecap: square"/>
   </g>
   <g id="patch_2">
    <path d="M 77.1732 189.5976 
L 268.6788 189.5976 
Q 279.7272 189.5976 279.7272 179.6184 
L 279.7272 145.2456 
Q 279.7272 135.2664 268.6788 135.2664 
L 77.1732 135.2664 
Q 66.1248 135.2664 66.1248 145.2456 
L 66.1248 179.6184 
Q 66.1248 189.5976 77.1732 189.5976 
z
" clip-path="url(#pffedb039d2)" style="fill: #eef3ec; stroke: #7a8673; stroke-linejoin: miter"/>
   </g>
   <g id="patch_3">
    <path d="M 359.5212 189.5976 
L 551.0268 189.5976 
Q 562.0752 189.5976 562.0752 179.6184 
L 562.0752 145.2456 
Q 562.0752 135.2664 551.0268 135.2664 
L 359.5212 135.2664 
Q 348.4728 135.2664 348.4728 145.2456 
L 348.4728 179.6184 
Q 348.4728 189.5976 359.5212 189.5976 
z
" clip-path="url(#pffedb039d2)" style="fill: #eef3ec; stroke: #7a8673; stroke-linejoin: miter"/>
   </g>
   <g id="patch_4">
    <path d="M 150.8292 322.6536 
L 477.3708 322.6536 
Q 488.4192 322.6536 488.4192 312.6744 
L 488.4192 278.3016 
Q 488.4192 268.3224 477.3708 268.3224 
L 150.8292 268.3224 
Q 139.7808 268.3224 139.7808 278.3016 
L 139.7808 312.6744 
Q 139.7808 322.6536 150.8292 322.6536 
z
" clip-path="url(#pffedb039d2)" style="fill: #e4ece1; stroke: #7a8673; stroke-linejoin: miter"/>
   </g>
   <g id="patch_5">
    <path d="M 71.0352 464.0256 
L 268.6788 464.0256 
Q 279.7272 464.0256 279.7272 454.0464 
L 279.7272 419.6736 
Q 279.7272 409.6944 268.6788 409.6944 
L 71.0352 409.6944 
Q 59.9868 409.6944 59.9868 419.6736 
L 59.9868 454.0464 
Q 59.9868 464.0256 71.0352 464.0256 
z
" clip-path="url(#pffedb039d2)" style="fill: #d9e4d3; stroke: #7a8673; stroke-linejoin: miter"/>
   </g>
   <g id="patch_6">
    <path d="M 359.5212 464.0256 
L 557.1648 464.0256 
Q 568.2132 464.0256 568.2132 454.0464 
L 568.2132 419.6736 
Q 568.2132 409.6944 557.1648 409.6944 
L 359.5212 409.6944 
Q 348.4728 409.6944 348.4728 419.6736 
L 348.4728 454.0464 
Q 348.4728 464.0256 359.5212 464.0256 
z
" clip-path="url(#pffedb039d2)" style="fill: #d9e4d3; stroke: #7a8673; stroke-linejoin: miter"/>
   </g>
   <g id="patch_7">
    <path d="M 175.3812 597.0816 
L 452.8188 597.0816 
Q 463.8672 597.0816 463.8672 587.1024 
L 463.8672 552.7296 
Q 463.8672 542.7504 452.8188 542.7504 
L 175.3812 542.7504 
Q 164.3328 542.7504 164.3328 552.7296 
L 164.3328 587.1024 
Q 164.3328 597.0816 175.3812 597.0816 
z
" clip-path="url(#pffedb039d2)" style="fill: #cbd9c2; stroke: #7a8673; stroke-linejoin: miter"/>
   </g>
   <g id="patch_8">
    <path d="M 175.3812 732.9096 
L 452.8188 732.9096 
Q 463.8672 732.9096 463.8672 722.9304 
L 463.8672 688.5576 
Q 463.8672 678.5784 452.8188 678.5784 
L 175.3812 678.5784 
Q 164.3328 678.5784 164.3328 688.5576 
L 164.3328 722.9304 
Q 164.3328 732.9096 175.3812 732.9096 
z
" clip-path="url(#pffedb039d2)" style="fill: #e4ece1; stroke: #7a8673; stroke-linejoin: miter"/>
   </g>
   <g id="text_1">
    <!-- Monopoly Data Analytics Pipeline -->
    <g style="fill: #2f3430" transform="translate(78.096094 32.148) scale(0.25 -0.25)">
     <defs>
      <path id="DejaVuSerif-Bold-4d" d="M 269 0 
L 269 378 
L 863 378 
L 863 4288 
L 269 4288 
L 269 4666 
L 2194 4666 
L 3525 1672 
L 4863 4666 
L 6784 4666 
L 6784 4288 
L 6188 4288 
L 6188 378 
L 6784 378 
L 6784 0 
L 4384 0 
L 4384 378 
L 4978 378 
L 4978 3938 
L 3531 684 
L 2741 684 
L 1300 3938 
L 1300 378 
L 1894 378 
L 1894 0 
L 269 0 
z
" transform="scale(0.015625)"/>
      <path id="DejaVuSerif-Bold-6f" d="M 2138 263 
Q 2488 263 2630 563 
Q 2772 863 2772 1663 
Q 2772 2463 2631 2761 
Q 2491 3059 2138 3059 
Q 1784 3059 1640 2757 
Q 1497 2456 1497 1663 
Q 1497 869 1640 566 
Q 1784 263 2138 263 
z
M 2138 -91 
Q 1259 -91 761 376 
Q 263 844 263 1663 
Q 263 2484 761 2948 
Q 1259 3413 2138 3413 
Q 3019 3413 3516 2948 
Q 4013 2484 4013 1663 
Q 4013 844 3514 376 
Q 3016 -91 2138 -91 
z
" transform="scale(0.015625)"/>
      <path id="DejaVuSerif-Bold-6e" d="M 219 0 
L 219 378 
L 691 378 
L 691 2944 
L 219 2944 
L 219 3322 
L 1797 3322 
L 1797 2853 
Q 1997 3150 2253 3281 
Q 2509 3413 2900 3413 
Q 3459 3413 3745 3083 
Q 4031 2753 4031 2113 
L 4031 378 
L 4506 378 
L 4506 0 
L 2522 0 
L 2522 378 
L 2925 378 
L 2925 2144 
Q 2925 2566 2817 2730 
Q 2709 2894 2444 2894 
Q 2109 2894 1953 2648 
Q 1797 2403 1797 1869 
L 1797 378 
L 2203 378 
L 2203 0 
L 219 0 
z
" transform="scale(0.015625)"/>
      <path id="DejaVuSerif-Bold-70" d="M 1728 1825 
L 1728 1497 
Q 1728 916 1876 656 
Q 2025 397 2356 397 
Q 2697 397 2836 672 
Q 2975 947 2975 1663 
Q 2975 2378 2836 2651 
Q 2697 2925 2356 2925 
Q 2025 2925 1876 2665 
Q 1728 2406 1728 1825 
z
M 622 2944 
L 147 2944 
L 147 3322 
L 1728 3322 
L 1728 2900 
Q 1869 3159 2106 3286 
Q 2344 3413 2694 3413 
Q 3403 3413 3811 2945 
Q 4219 2478 4219 1663 
Q 4219 847 3811 378 
Q 3403 -91 2694 -91 
Q 2344 -91 2106 36 
Q 1869 163 1728 422 
L 1728 -953 
L 2241 -953 
L 2241 -1331 
L 147 -1331 
L 147 -953 
L 622 -953 
L 622 2944 
z
" transform="scale(0.015625)"/>
      <path id="DejaVuSerif-Bold-6c" d="M 1797 378 
L 2272 378 
L 2272 0 
L 219 0 
L 219 378 
L 691 378 
L 691 4488 
L 219 4488 
L 219 4863 
L 1797 4863 
L 1797 378 
z
" transform="scale(0.015625)"/>
      <path id="DejaVuSerif-Bold-79" d="M 1997 -750 
Q 1847 -1116 1634 -1269 
Q 1422 -1422 1063 -1422 
Q 909 -1422 721 -1387 
Q 534 -1353 313 -1288 
L 313 -594 
L 666 -597 
Q 675 -838 779 -953 
Q 884 -1069 1094 -1069 
Q 1297 -1069 1422 -958 
Q 1547 -847 1672 -538 
L 1722 -422 
L 275 2944 
L -84 2944 
L -84 3322 
L 1831 3322 
L 1831 2944 
L 1434 2944 
L 2278 978 
L 3066 2944 
L 2625 2944 
L 2625 3322 
L 3872 3322 
L 3872 2944 
L 3469 2944 
L 1997 -750 
z
" transform="scale(0.015625)"/>
      <path id="DejaVuSerif-Bold-20" transform="scale(0.015625)"/>
      <path id="DejaVuSerif-Bold-44" d="M 2100 378 
L 2534 378 
Q 3266 378 3605 847 
Q 3944 1316 3944 2338 
Q 3944 3353 3606 3820 
Q 3269 4288 2534 4288 
L 2100 4288 
L 2100 378 
z
M 300 0 
L 300 378 
L 897 378 
L 897 4288 
L 300 4288 
L 300 4666 
L 2694 4666 
Q 3950 4666 4615 4066 
Q 5281 3466 5281 2338 
Q 5281 1203 4614 601 
Q 3947 0 2694 0 
L 300 0 
z
" transform="scale(0.015625)"/>
      <path id="DejaVuSerif-Bold-61" d="M 3525 2041 
L 3525 378 
L 4000 378 
L 4000 0 
L 2419 0 
L 2419 422 
Q 2200 159 1931 34 
Q 1663 -91 1319 -91 
Q 809 -91 536 182 
Q 263 456 263 966 
Q 263 1525 655 1803 
Q 1047 2081 1838 2081 
L 2419 2081 
L 2419 2278 
Q 2419 2681 2228 2873 
Q 2038 3066 1638 3066 
Q 1306 3066 1126 2930 
Q 947 2794 872 2484 
L 519 2484 
L 519 3200 
Q 816 3306 1134 3359 
Q 1453 3413 1806 3413 
Q 2697 3413 3111 3081 
Q 3525 2750 3525 2041 
z
M 2419 1044 
L 2419 1709 
L 2003 1709 
Q 1694 1709 1528 1540 
Q 1363 1372 1363 1056 
Q 1363 741 1483 584 
Q 1603 428 1850 428 
Q 2106 428 2262 597 
Q 2419 766 2419 1044 
z
" transform="scale(0.015625)"/>
      <path id="DejaVuSerif-Bold-74" d="M 634 2944 
L 153 2944 
L 153 3322 
L 634 3322 
L 634 4353 
L 1741 4353 
L 1741 3322 
L 2663 3322 
L 2663 2944 
L 1741 2944 
L 1741 909 
Q 1741 475 1809 369 
Q 1878 263 2059 263 
Q 2259 263 2356 397 
Q 2453 531 2459 813 
L 2925 813 
Q 2897 313 2651 111 
Q 2406 -91 1806 -91 
Q 1122 -91 878 123 
Q 634 338 634 909 
L 634 2944 
z
" transform="scale(0.015625)"/>
      <path id="DejaVuSerif-Bold-41" d="M -50 0 
L -50 378 
L 331 378 
L 2088 4666 
L 2834 4666 
L 4594 378 
L 5038 378 
L 5038 0 
L 2853 0 
L 2853 378 
L 3309 378 
L 2925 1331 
L 1172 1331 
L 781 378 
L 1338 378 
L 1338 0 
L -50 0 
z
M 1325 1709 
L 2772 1709 
L 2053 3494 
L 1325 1709 
z
" transform="scale(0.015625)"/>
      <path id="DejaVuSerif-Bold-69" d="M 588 4263 
Q 588 4516 763 4689 
Q 938 4863 1191 4863 
Q 1438 4863 1611 4689 
Q 1784 4516 1784 4263 
Q 1784 4016 1611 3842 
Q 1438 3669 1191 3669 
Q 938 3669 763 3841 
Q 588 4013 588 4263 
z
M 1797 378 
L 2272 378 
L 2272 0 
L 219 0 
L 219 378 
L 691 378 
L 691 2944 
L 219 2944 
L 219 3322 
L 1797 3322 
L 1797 378 
z
" transform="scale(0.015625)"/>
      <path id="DejaVuSerif-Bold-63" d="M 3609 1038 
Q 3491 469 3123 189 
Q 2756 -91 2125 -91 
Q 1238 -91 750 368 
Q 263 828 263 1663 
Q 263 2488 744 2950 
Q 1225 3413 2081 3413 
Q 2428 3413 2781 3347 
Q 3134 3281 3500 3150 
L 3500 2228 
L 3150 2228 
Q 3100 2650 2903 2854 
Q 2706 3059 2350 3059 
Q 1888 3059 1692 2746 
Q 1497 2434 1497 1663 
Q 1497 909 1687 586 
Q 1878 263 2309 263 
Q 2644 263 2845 463 
Q 3047 663 3091 1038 
L 3609 1038 
z
" transform="scale(0.015625)"/>
      <path id="DejaVuSerif-Bold-73" d="M 300 97 
L 300 1025 
L 653 1025 
Q 697 653 931 458 
Q 1166 263 1569 263 
Q 1906 263 2086 380 
Q 2266 497 2266 716 
Q 2266 916 2152 1025 
Q 2038 1134 1709 1216 
L 1253 1331 
Q 738 1459 506 1698 
Q 275 1938 275 2344 
Q 275 2884 650 3148 
Q 1025 3413 1806 3413 
Q 2100 3413 2433 3364 
Q 2766 3316 3169 3213 
L 3169 2375 
L 2816 2375 
Q 2788 2716 2573 2887 
Q 2359 3059 1959 3059 
Q 1622 3059 1448 2951 
Q 1275 2844 1275 2638 
Q 1275 2469 1375 2372 
Q 1475 2275 1734 2209 
L 2188 2094 
Q 2841 1928 3091 1684 
Q 3341 1441 3341 1006 
Q 3341 444 2939 176 
Q 2538 -91 1691 -91 
Q 1381 -91 1034 -44 
Q 688 3 300 97 
z
" transform="scale(0.015625)"/>
      <path id="DejaVuSerif-Bold-50" d="M 300 0 
L 300 378 
L 897 378 
L 897 4288 
L 300 4288 
L 300 4666 
L 2956 4666 
Q 3734 4666 4193 4295 
Q 4653 3925 4653 3303 
Q 4653 2678 4192 2304 
Q 3731 1931 2956 1931 
L 2100 1931 
L 2100 378 
L 2853 378 
L 2853 0 
L 300 0 
z
M 2100 2309 
L 2450 2309 
Q 2856 2309 3098 2579 
Q 3341 2850 3341 3303 
Q 3341 3753 3100 4020 
Q 2859 4288 2450 4288 
L 2100 4288 
L 2100 2309 
z
" transform="scale(0.015625)"/>
      <path id="DejaVuSerif-Bold-65" d="M 2566 1875 
Q 2566 2531 2444 2795 
Q 2322 3059 2028 3059 
Q 1744 3059 1620 2800 
Q 1497 2541 1497 1931 
L 1497 1875 
L 2566 1875 
z
M 3781 1503 
L 1497 1503 
L 1497 1478 
Q 1497 834 1690 548 
Q 1884 263 2316 263 
Q 2675 263 2897 453 
Q 3119 644 3181 1006 
L 3700 1006 
Q 3566 441 3166 175 
Q 2766 -91 2047 -91 
Q 1184 -91 723 364 
Q 263 819 263 1663 
Q 263 2488 734 2950 
Q 1206 3413 2047 3413 
Q 2872 3413 3312 2927 
Q 3753 2441 3781 1503 
z
" transform="scale(0.015625)"/>
     </defs>
     <use xlink:href="#DejaVuSerif-Bold-4d"/>
     <use xlink:href="#DejaVuSerif-Bold-6f" transform="translate(110.693359 0)"/>
     <use xlink:href="#DejaVuSerif-Bold-6e" transform="translate(177.392578 0)"/>
     <use xlink:href="#DejaVuSerif-Bold-6f" transform="translate(250.097656 0)"/>
     <use xlink:href="#DejaVuSerif-Bold-70" transform="translate(316.796875 0)"/>
     <use xlink:href="#DejaVuSerif-Bold-6f" transform="translate(386.71875 0)"/>
     <use xlink:href="#DejaVuSerif-Bold-6c" transform="translate(453.417969 0)"/>
     <use xlink:href="#DejaVuSerif-Bold-79" transform="translate(491.40625 0)"/>
     <use xlink:href="#DejaVuSerif-Bold-20" transform="translate(549.511719 0)"/>
     <use xlink:href="#DejaVuSerif-Bold-44" transform="translate(584.326172 0)"/>
     <use xlink:href="#DejaVuSerif-Bold-61" transform="translate(671.044922 0)"/>
     <use xlink:href="#DejaVuSerif-Bold-74" transform="translate(735.839844 0)"/>
     <use xlink:href="#DejaVuSerif-Bold-61" transform="translate(782.03125 0)"/>
     <use xlink:href="#DejaVuSerif-Bold-20" transform="translate(846.826172 0)"/>
     <use xlink:href="#DejaVuSerif-Bold-41" transform="translate(881.640625 0)"/>
     <use xlink:href="#DejaVuSerif-Bold-6e" transform="translate(959.228516 0)"/>
     <use xlink:href="#DejaVuSerif-Bold-61" transform="translate(1031.933594 0)"/>
     <use xlink:href="#DejaVuSerif-Bold-6c" transform="translate(1096.728516 0)"/>
     <use xlink:href="#DejaVuSerif-Bold-79" transform="translate(1134.716797 0)"/>
     <use xlink:href="#DejaVuSerif-Bold-74" transform="translate(1192.822266 0)"/>
     <use xlink:href="#DejaVuSerif-Bold-69" transform="translate(1239.013672 0)"/>
     <use xlink:href="#DejaVuSerif-Bold-63" transform="translate(1277.001953 0)"/>
     <use xlink:href="#DejaVuSerif-Bold-73" transform="translate(1337.890625 0)"/>
     <use xlink:href="#DejaVuSerif-Bold-20" transform="translate(1394.189453 0)"/>
     <use xlink:href="#DejaVuSerif-Bold-50" transform="translate(1429.003906 0)"/>
     <use xlink:href="#DejaVuSerif-Bold-69" transform="translate(1504.199219 0)"/>
     <use xlink:href="#DejaVuSerif-Bold-70" transform="translate(1542.1875 0)"/>
     <use xlink:href="#DejaVuSerif-Bold-65" transform="translate(1612.109375 0)"/>
     <use xlink:href="#DejaVuSerif-Bold-6c" transform="translate(1675.732422 0)"/>
     <use xlink:href="#DejaVuSerif-Bold-69" transform="translate(1713.720703 0)"/>
     <use xlink:href="#DejaVuSerif-Bold-6e" transform="translate(1751.708984 0)"/>
     <use xlink:href="#DejaVuSerif-Bold-65" transform="translate(1824.414062 0)"/>
    </g>
   </g>
   <g id="text_2">
    <!-- High-Level System Architecture -->
    <g style="fill: #697364" transform="translate(208.272891 58.2048) scale(0.13 -0.13)">
     <defs>
      <path id="DejaVuSerif-48" d="M 353 0 
L 353 331 
L 947 331 
L 947 4331 
L 353 4331 
L 353 4666 
L 2175 4666 
L 2175 4331 
L 1581 4331 
L 1581 2719 
L 4000 2719 
L 4000 4331 
L 3406 4331 
L 3406 4666 
L 5228 4666 
L 5228 4331 
L 4634 4331 
L 4634 331 
L 5228 331 
L 5228 0 
L 3406 0 
L 3406 331 
L 4000 331 
L 4000 2338 
L 1581 2338 
L 1581 331 
L 2175 331 
L 2175 0 
L 353 0 
z
" transform="scale(0.015625)"/>
      <path id="DejaVuSerif-69" d="M 622 4353 
Q 622 4497 726 4603 
Q 831 4709 978 4709 
Q 1122 4709 1226 4603 
Q 1331 4497 1331 4353 
Q 1331 4206 1228 4103 
Q 1125 4000 978 4000 
Q 831 4000 726 4103 
Q 622 4206 622 4353 
z
M 1356 331 
L 1900 331 
L 1900 0 
L 231 0 
L 231 331 
L 781 331 
L 781 2988 
L 231 2988 
L 231 3322 
L 1356 3322 
L 1356 331 
z
" transform="scale(0.015625)"/>
      <path id="DejaVuSerif-67" d="M 3359 2988 
L 3359 72 
Q 3359 -644 2965 -1033 
Q 2572 -1422 1844 -1422 
Q 1516 -1422 1216 -1362 
Q 916 -1303 641 -1184 
L 641 -488 
L 941 -488 
Q 997 -813 1206 -963 
Q 1416 -1113 1806 -1113 
Q 2313 -1113 2548 -827 
Q 2784 -541 2784 72 
L 2784 519 
Q 2616 206 2355 57 
Q 2094 -91 1709 -91 
Q 1097 -91 708 395 
Q 319 881 319 1663 
Q 319 2444 706 2928 
Q 1094 3413 1709 3413 
Q 2094 3413 2355 3264 
Q 2616 3116 2784 2803 
L 2784 3322 
L 3909 3322 
L 3909 2988 
L 3359 2988 
z
M 2784 1825 
Q 2784 2422 2554 2737 
Q 2325 3053 1888 3053 
Q 1444 3053 1217 2703 
Q 991 2353 991 1663 
Q 991 975 1217 622 
Q 1444 269 1888 269 
Q 2325 269 2554 583 
Q 2784 897 2784 1497 
L 2784 1825 
z
" transform="scale(0.015625)"/>
      <path id="DejaVuSerif-68" d="M 263 0 
L 263 331 
L 781 331 
L 781 4531 
L 231 4531 
L 231 4863 
L 1356 4863 
L 1356 2731 
Q 1516 3069 1770 3241 
Q 2025 3413 2363 3413 
Q 2913 3413 3172 3097 
Q 3431 2781 3431 2113 
L 3431 331 
L 3944 331 
L 3944 0 
L 2356 0 
L 2356 331 
L 2853 331 
L 2853 1931 
Q 2853 2541 2704 2764 
Q 2556 2988 2175 2988 
Q 1775 2988 1565 2697 
Q 1356 2406 1356 1850 
L 1356 331 
L 1856 331 
L 1856 0 
L 263 0 
z
" transform="scale(0.015625)"/>
      <path id="DejaVuSerif-2d" d="M 281 1959 
L 1881 1959 
L 1881 1472 
L 281 1472 
L 281 1959 
z
" transform="scale(0.015625)"/>
      <path id="DejaVuSerif-4c" d="M 353 0 
L 353 331 
L 947 331 
L 947 4331 
L 353 4331 
L 353 4666 
L 2175 4666 
L 2175 4331 
L 1581 4331 
L 1581 384 
L 3713 384 
L 3713 1166 
L 4097 1166 
L 4097 0 
L 353 0 
z
" transform="scale(0.015625)"/>
      <path id="DejaVuSerif-65" d="M 3469 1600 
L 991 1600 
L 991 1575 
Q 991 903 1244 561 
Q 1497 219 1991 219 
Q 2369 219 2611 417 
Q 2853 616 2950 1006 
L 3413 1006 
Q 3275 459 2904 184 
Q 2534 -91 1931 -91 
Q 1203 -91 761 389 
Q 319 869 319 1663 
Q 319 2450 753 2931 
Q 1188 3413 1894 3413 
Q 2647 3413 3050 2948 
Q 3453 2484 3469 1600 
z
M 2791 1931 
Q 2772 2513 2545 2808 
Q 2319 3103 1894 3103 
Q 1497 3103 1269 2806 
Q 1041 2509 991 1931 
L 2791 1931 
z
" transform="scale(0.015625)"/>
      <path id="DejaVuSerif-76" d="M 1581 0 
L 359 2988 
L -19 2988 
L -19 3322 
L 1509 3322 
L 1509 2988 
L 978 2988 
L 1913 703 
L 2847 2988 
L 2350 2988 
L 2350 3322 
L 3597 3322 
L 3597 2988 
L 3225 2988 
L 2003 0 
L 1581 0 
z
" transform="scale(0.015625)"/>
      <path id="DejaVuSerif-6c" d="M 1313 331 
L 1856 331 
L 1856 0 
L 184 0 
L 184 331 
L 738 331 
L 738 4531 
L 184 4531 
L 184 4863 
L 1313 4863 
L 1313 331 
z
" transform="scale(0.015625)"/>
      <path id="DejaVuSerif-20" transform="scale(0.015625)"/>
      <path id="DejaVuSerif-53" d="M 594 225 
L 594 1288 
L 953 1284 
Q 969 753 1261 498 
Q 1553 244 2150 244 
Q 2706 244 2998 464 
Q 3291 684 3291 1106 
Q 3291 1444 3114 1625 
Q 2938 1806 2369 1978 
L 1753 2163 
Q 1084 2366 811 2669 
Q 538 2972 538 3500 
Q 538 4094 959 4422 
Q 1381 4750 2144 4750 
Q 2469 4750 2856 4679 
Q 3244 4609 3681 4475 
L 3681 3481 
L 3328 3481 
Q 3275 3975 2998 4195 
Q 2722 4416 2156 4416 
Q 1663 4416 1405 4214 
Q 1147 4013 1147 3628 
Q 1147 3294 1340 3103 
Q 1534 2913 2163 2725 
L 2741 2553 
Q 3375 2363 3645 2067 
Q 3916 1772 3916 1275 
Q 3916 597 3481 253 
Q 3047 -91 2188 -91 
Q 1803 -91 1404 -12 
Q 1006 66 594 225 
z
" transform="scale(0.015625)"/>
      <path id="DejaVuSerif-79" d="M 1381 -609 
L 1600 -56 
L 359 2988 
L -19 2988 
L -19 3322 
L 1509 3322 
L 1509 2988 
L 978 2988 
L 1913 703 
L 2847 2988 
L 2350 2988 
L 2350 3322 
L 3597 3322 
L 3597 2988 
L 3225 2988 
L 1703 -750 
Q 1547 -1138 1356 -1280 
Q 1166 -1422 819 -1422 
Q 672 -1422 517 -1397 
Q 363 -1372 206 -1325 
L 206 -691 
L 500 -691 
Q 519 -903 608 -995 
Q 697 -1088 884 -1088 
Q 1056 -1088 1161 -992 
Q 1266 -897 1381 -609 
z
" transform="scale(0.015625)"/>
      <path id="DejaVuSerif-73" d="M 359 184 
L 359 959 
L 691 959 
Q 703 588 923 403 
Q 1144 219 1575 219 
Q 1963 219 2166 364 
Q 2369 509 2369 788 
Q 2369 1006 2220 1140 
Q 2072 1275 1594 1428 
L 1178 1569 
Q 750 1706 558 1912 
Q 366 2119 366 2438 
Q 366 2894 700 3153 
Q 1034 3413 1625 3413 
Q 1888 3413 2178 3344 
Q 2469 3275 2778 3144 
L 2778 2419 
L 2447 2419 
Q 2434 2741 2221 2922 
Q 2009 3103 1644 3103 
Q 1281 3103 1095 2975 
Q 909 2847 909 2591 
Q 909 2381 1050 2254 
Q 1191 2128 1613 1997 
L 2069 1856 
Q 2541 1709 2748 1489 
Q 2956 1269 2956 922 
Q 2956 450 2595 179 
Q 2234 -91 1600 -91 
Q 1278 -91 972 -22 
Q 666 47 359 184 
z
" transform="scale(0.015625)"/>
      <path id="DejaVuSerif-74" d="M 691 2988 
L 184 2988 
L 184 3322 
L 691 3322 
L 691 4353 
L 1269 4353 
L 1269 3322 
L 2350 3322 
L 2350 2988 
L 1269 2988 
L 1269 878 
Q 1269 456 1350 337 
Q 1431 219 1650 219 
Q 1875 219 1978 351 
Q 2081 484 2088 781 
L 2522 781 
Q 2497 328 2275 118 
Q 2053 -91 1600 -91 
Q 1103 -91 897 129 
Q 691 350 691 878 
L 691 2988 
z
" transform="scale(0.015625)"/>
      <path id="DejaVuSerif-6d" d="M 3316 2675 
Q 3481 3041 3739 3227 
Q 3997 3413 4341 3413 
Q 4863 3413 5119 3089 
Q 5375 2766 5375 2113 
L 5375 331 
L 5894 331 
L 5894 0 
L 4300 0 
L 4300 331 
L 4800 331 
L 4800 2047 
Q 4800 2556 4650 2772 
Q 4500 2988 4153 2988 
Q 3769 2988 3567 2697 
Q 3366 2406 3366 1850 
L 3366 331 
L 3866 331 
L 3866 0 
L 2291 0 
L 2291 331 
L 2791 331 
L 2791 2069 
Q 2791 2566 2641 2777 
Q 2491 2988 2144 2988 
Q 1759 2988 1557 2697 
Q 1356 2406 1356 1850 
L 1356 331 
L 1856 331 
L 1856 0 
L 263 0 
L 263 331 
L 781 331 
L 781 2994 
L 231 2994 
L 231 3322 
L 1356 3322 
L 1356 2731 
Q 1516 3063 1762 3238 
Q 2009 3413 2322 3413 
Q 2709 3413 2968 3220 
Q 3228 3028 3316 2675 
z
" transform="scale(0.015625)"/>
      <path id="DejaVuSerif-41" d="M 1281 1691 
L 2994 1691 
L 2138 3909 
L 1281 1691 
z
M -38 0 
L -38 331 
L 372 331 
L 2034 4666 
L 2559 4666 
L 4225 331 
L 4684 331 
L 4684 0 
L 2988 0 
L 2988 331 
L 3506 331 
L 3116 1356 
L 1153 1356 
L 763 331 
L 1275 331 
L 1275 0 
L -38 0 
z
" transform="scale(0.015625)"/>
      <path id="DejaVuSerif-72" d="M 3059 3328 
L 3059 2497 
L 2728 2497 
Q 2713 2744 2591 2866 
Q 2469 2988 2234 2988 
Q 1809 2988 1582 2694 
Q 1356 2400 1356 1850 
L 1356 331 
L 2022 331 
L 2022 0 
L 263 0 
L 263 331 
L 781 331 
L 781 2994 
L 231 2994 
L 231 3322 
L 1356 3322 
L 1356 2731 
Q 1525 3078 1790 3245 
Q 2056 3413 2438 3413 
Q 2578 3413 2733 3391 
Q 2888 3369 3059 3328 
z
" transform="scale(0.015625)"/>
      <path id="DejaVuSerif-63" d="M 3291 997 
Q 3169 466 2822 187 
Q 2475 -91 1925 -91 
Q 1200 -91 759 389 
Q 319 869 319 1663 
Q 319 2459 759 2936 
Q 1200 3413 1925 3413 
Q 2241 3413 2553 3339 
Q 2866 3266 3181 3116 
L 3181 2266 
L 2847 2266 
Q 2781 2703 2561 2903 
Q 2341 3103 1931 3103 
Q 1466 3103 1228 2742 
Q 991 2381 991 1663 
Q 991 944 1227 581 
Q 1463 219 1931 219 
Q 2303 219 2525 412 
Q 2747 606 2828 997 
L 3291 997 
z
" transform="scale(0.015625)"/>
      <path id="DejaVuSerif-75" d="M 2266 3322 
L 3341 3322 
L 3341 331 
L 3884 331 
L 3884 0 
L 2766 0 
L 2766 588 
Q 2606 256 2353 82 
Q 2100 -91 1766 -91 
Q 1213 -91 952 223 
Q 691 538 691 1209 
L 691 2988 
L 172 2988 
L 172 3322 
L 1269 3322 
L 1269 1388 
Q 1269 781 1417 556 
Q 1566 331 1947 331 
Q 2347 331 2556 625 
Q 2766 919 2766 1478 
L 2766 2988 
L 2266 2988 
L 2266 3322 
z
" transform="scale(0.015625)"/>
     </defs>
     <use xlink:href="#DejaVuSerif-48"/>
     <use xlink:href="#DejaVuSerif-69" transform="translate(87.207031 0)"/>
     <use xlink:href="#DejaVuSerif-67" transform="translate(119.189453 0)"/>
     <use xlink:href="#DejaVuSerif-68" transform="translate(183.203125 0)"/>
     <use xlink:href="#DejaVuSerif-2d" transform="translate(247.607422 0)"/>
     <use xlink:href="#DejaVuSerif-4c" transform="translate(281.396484 0)"/>
     <use xlink:href="#DejaVuSerif-65" transform="translate(347.802734 0)"/>
     <use xlink:href="#DejaVuSerif-76" transform="translate(406.982422 0)"/>
     <use xlink:href="#DejaVuSerif-65" transform="translate(463.476562 0)"/>
     <use xlink:href="#DejaVuSerif-6c" transform="translate(522.65625 0)"/>
     <use xlink:href="#DejaVuSerif-20" transform="translate(554.638672 0)"/>
     <use xlink:href="#DejaVuSerif-53" transform="translate(586.425781 0)"/>
     <use xlink:href="#DejaVuSerif-79" transform="translate(654.931641 0)"/>
     <use xlink:href="#DejaVuSerif-73" transform="translate(711.425781 0)"/>
     <use xlink:href="#DejaVuSerif-74" transform="translate(762.744141 0)"/>
     <use xlink:href="#DejaVuSerif-65" transform="translate(802.929688 0)"/>
     <use xlink:href="#DejaVuSerif-6d" transform="translate(862.109375 0)"/>
     <use xlink:href="#DejaVuSerif-20" transform="translate(956.933594 0)"/>
     <use xlink:href="#DejaVuSerif-41" transform="translate(988.720703 0)"/>
     <use xlink:href="#DejaVuSerif-72" transform="translate(1060.9375 0)"/>
     <use xlink:href="#DejaVuSerif-63" transform="translate(1108.740234 0)"/>
     <use xlink:href="#DejaVuSerif-68" transform="translate(1164.746094 0)"/>
     <use xlink:href="#DejaVuSerif-69" transform="translate(1229.150391 0)"/>
     <use xlink:href="#DejaVuSerif-74" transform="translate(1261.132812 0)"/>
     <use xlink:href="#DejaVuSerif-65" transform="translate(1301.318359 0)"/>
     <use xlink:href="#DejaVuSerif-63" transform="translate(1360.498047 0)"/>
     <use xlink:href="#DejaVuSerif-74" transform="translate(1416.503906 0)"/>
     <use xlink:href="#DejaVuSerif-75" transform="translate(1456.689453 0)"/>
     <use xlink:href="#DejaVuSerif-72" transform="translate(1521.09375 0)"/>
     <use xlink:href="#DejaVuSerif-65" transform="translate(1568.896484 0)"/>
    </g>
   </g>
   <g id="text_3">
    <!-- DATA GENERATION -->
    <g style="fill: #6d8066" transform="translate(256.433359 93.616344) scale(0.11 -0.11)">
     <defs>
      <path id="DejaVuSans-Bold-44" d="M 1791 3756 
L 1791 909 
L 2222 909 
Q 2959 909 3348 1275 
Q 3738 1641 3738 2338 
Q 3738 3031 3350 3393 
Q 2963 3756 2222 3756 
L 1791 3756 
z
M 588 4666 
L 1856 4666 
Q 2919 4666 3439 4514 
Q 3959 4363 4331 4000 
Q 4659 3684 4818 3271 
Q 4978 2859 4978 2338 
Q 4978 1809 4818 1395 
Q 4659 981 4331 666 
Q 3956 303 3431 151 
Q 2906 0 1856 0 
L 588 0 
L 588 4666 
z
" transform="scale(0.015625)"/>
      <path id="DejaVuSans-Bold-41" d="M 3419 850 
L 1538 850 
L 1241 0 
L 31 0 
L 1759 4666 
L 3194 4666 
L 4922 0 
L 3713 0 
L 3419 850 
z
M 1838 1716 
L 3116 1716 
L 2478 3572 
L 1838 1716 
z
" transform="scale(0.015625)"/>
      <path id="DejaVuSans-Bold-54" d="M 31 4666 
L 4331 4666 
L 4331 3756 
L 2784 3756 
L 2784 0 
L 1581 0 
L 1581 3756 
L 31 3756 
L 31 4666 
z
" transform="scale(0.015625)"/>
      <path id="DejaVuSans-Bold-20" transform="scale(0.015625)"/>
      <path id="DejaVuSans-Bold-47" d="M 4781 347 
Q 4331 128 3847 18 
Q 3363 -91 2847 -91 
Q 1681 -91 1000 561 
Q 319 1213 319 2328 
Q 319 3456 1012 4103 
Q 1706 4750 2913 4750 
Q 3378 4750 3804 4662 
Q 4231 4575 4609 4403 
L 4609 3438 
Q 4219 3659 3833 3768 
Q 3447 3878 3059 3878 
Q 2341 3878 1952 3476 
Q 1563 3075 1563 2328 
Q 1563 1588 1938 1184 
Q 2313 781 3003 781 
Q 3191 781 3352 804 
Q 3513 828 3641 878 
L 3641 1784 
L 2906 1784 
L 2906 2591 
L 4781 2591 
L 4781 347 
z
" transform="scale(0.015625)"/>
      <path id="DejaVuSans-Bold-45" d="M 588 4666 
L 3834 4666 
L 3834 3756 
L 1791 3756 
L 1791 2888 
L 3713 2888 
L 3713 1978 
L 1791 1978 
L 1791 909 
L 3903 909 
L 3903 0 
L 588 0 
L 588 4666 
z
" transform="scale(0.015625)"/>
      <path id="DejaVuSans-Bold-4e" d="M 588 4666 
L 1931 4666 
L 3628 1466 
L 3628 4666 
L 4769 4666 
L 4769 0 
L 3425 0 
L 1728 3200 
L 1728 0 
L 588 0 
L 588 4666 
z
" transform="scale(0.015625)"/>
      <path id="DejaVuSans-Bold-52" d="M 2297 2597 
Q 2675 2597 2839 2737 
Q 3003 2878 3003 3200 
Q 3003 3519 2839 3656 
Q 2675 3794 2297 3794 
L 1791 3794 
L 1791 2597 
L 2297 2597 
z
M 1791 1766 
L 1791 0 
L 588 0 
L 588 4666 
L 2425 4666 
Q 3347 4666 3776 4356 
Q 4206 4047 4206 3378 
Q 4206 2916 3982 2619 
Q 3759 2322 3309 2181 
Q 3556 2125 3751 1926 
Q 3947 1728 4147 1325 
L 4800 0 
L 3519 0 
L 2950 1159 
Q 2778 1509 2601 1637 
Q 2425 1766 2131 1766 
L 1791 1766 
z
" transform="scale(0.015625)"/>
      <path id="DejaVuSans-Bold-49" d="M 588 4666 
L 1791 4666 
L 1791 0 
L 588 0 
L 588 4666 
z
" transform="scale(0.015625)"/>
      <path id="DejaVuSans-Bold-4f" d="M 2719 3878 
Q 2169 3878 1866 3472 
Q 1563 3066 1563 2328 
Q 1563 1594 1866 1187 
Q 2169 781 2719 781 
Q 3272 781 3575 1187 
Q 3878 1594 3878 2328 
Q 3878 3066 3575 3472 
Q 3272 3878 2719 3878 
z
M 2719 4750 
Q 3844 4750 4481 4106 
Q 5119 3463 5119 2328 
Q 5119 1197 4481 553 
Q 3844 -91 2719 -91 
Q 1597 -91 958 553 
Q 319 1197 319 2328 
Q 319 3463 958 4106 
Q 1597 4750 2719 4750 
z
" transform="scale(0.015625)"/>
     </defs>
     <use xlink:href="#DejaVuSans-Bold-44"/>
     <use xlink:href="#DejaVuSans-Bold-41" transform="translate(83.007812 0)"/>
     <use xlink:href="#DejaVuSans-Bold-54" transform="translate(152.650391 0)"/>
     <use xlink:href="#DejaVuSans-Bold-41" transform="translate(213.113281 0)"/>
     <use xlink:href="#DejaVuSans-Bold-20" transform="translate(290.505859 0)"/>
     <use xlink:href="#DejaVuSans-Bold-47" transform="translate(325.320312 0)"/>
     <use xlink:href="#DejaVuSans-Bold-45" transform="translate(407.400391 0)"/>
     <use xlink:href="#DejaVuSans-Bold-4e" transform="translate(475.710938 0)"/>
     <use xlink:href="#DejaVuSans-Bold-45" transform="translate(559.402344 0)"/>
     <use xlink:href="#DejaVuSans-Bold-52" transform="translate(627.712891 0)"/>
     <use xlink:href="#DejaVuSans-Bold-41" transform="translate(704.714844 0)"/>
     <use xlink:href="#DejaVuSans-Bold-54" transform="translate(774.357422 0)"/>
     <use xlink:href="#DejaVuSans-Bold-49" transform="translate(842.570312 0)"/>
     <use xlink:href="#DejaVuSans-Bold-4f" transform="translate(879.777344 0)"/>
     <use xlink:href="#DejaVuSans-Bold-4e" transform="translate(964.787109 0)"/>
    </g>
   </g>
   <g id="text_4">
    <!-- Monopoly -->
    <g style="fill: #2f3430" transform="translate(140.054438 158.977688) scale(0.12 -0.12)">
     <defs>
      <path id="DejaVuSans-Bold-4d" d="M 588 4666 
L 2119 4666 
L 3181 2169 
L 4250 4666 
L 5778 4666 
L 5778 0 
L 4641 0 
L 4641 3413 
L 3566 897 
L 2803 897 
L 1728 3413 
L 1728 0 
L 588 0 
L 588 4666 
z
" transform="scale(0.015625)"/>
      <path id="DejaVuSans-Bold-6f" d="M 2203 2784 
Q 1831 2784 1636 2517 
Q 1441 2250 1441 1747 
Q 1441 1244 1636 976 
Q 1831 709 2203 709 
Q 2569 709 2762 976 
Q 2956 1244 2956 1747 
Q 2956 2250 2762 2517 
Q 2569 2784 2203 2784 
z
M 2203 3584 
Q 3106 3584 3614 3096 
Q 4122 2609 4122 1747 
Q 4122 884 3614 396 
Q 3106 -91 2203 -91 
Q 1297 -91 786 396 
Q 275 884 275 1747 
Q 275 2609 786 3096 
Q 1297 3584 2203 3584 
z
" transform="scale(0.015625)"/>
      <path id="DejaVuSans-Bold-6e" d="M 4056 2131 
L 4056 0 
L 2931 0 
L 2931 347 
L 2931 1631 
Q 2931 2084 2911 2256 
Q 2891 2428 2841 2509 
Q 2775 2619 2662 2680 
Q 2550 2741 2406 2741 
Q 2056 2741 1856 2470 
Q 1656 2200 1656 1722 
L 1656 0 
L 538 0 
L 538 3500 
L 1656 3500 
L 1656 2988 
Q 1909 3294 2193 3439 
Q 2478 3584 2822 3584 
Q 3428 3584 3742 3212 
Q 4056 2841 4056 2131 
z
" transform="scale(0.015625)"/>
      <path id="DejaVuSans-Bold-70" d="M 1656 506 
L 1656 -1331 
L 538 -1331 
L 538 3500 
L 1656 3500 
L 1656 2988 
Q 1888 3294 2169 3439 
Q 2450 3584 2816 3584 
Q 3463 3584 3878 3070 
Q 4294 2556 4294 1747 
Q 4294 938 3878 423 
Q 3463 -91 2816 -91 
Q 2450 -91 2169 54 
Q 1888 200 1656 506 
z
M 2400 2772 
Q 2041 2772 1848 2508 
Q 1656 2244 1656 1747 
Q 1656 1250 1848 986 
Q 2041 722 2400 722 
Q 2759 722 2948 984 
Q 3138 1247 3138 1747 
Q 3138 2247 2948 2509 
Q 2759 2772 2400 2772 
z
" transform="scale(0.015625)"/>
      <path id="DejaVuSans-Bold-6c" d="M 538 4863 
L 1656 4863 
L 1656 0 
L 538 0 
L 538 4863 
z
" transform="scale(0.015625)"/>
      <path id="DejaVuSans-Bold-79" d="M 78 3500 
L 1197 3500 
L 2138 1125 
L 2938 3500 
L 4056 3500 
L 2584 -331 
Q 2363 -916 2067 -1148 
Q 1772 -1381 1288 -1381 
L 641 -1381 
L 641 -647 
L 991 -647 
Q 1275 -647 1404 -556 
Q 1534 -466 1606 -231 
L 1638 -134 
L 78 3500 
z
" transform="scale(0.015625)"/>
     </defs>
     <use xlink:href="#DejaVuSans-Bold-4d"/>
     <use xlink:href="#DejaVuSans-Bold-6f" transform="translate(99.511719 0)"/>
     <use xlink:href="#DejaVuSans-Bold-6e" transform="translate(168.212891 0)"/>
     <use xlink:href="#DejaVuSans-Bold-6f" transform="translate(239.404297 0)"/>
     <use xlink:href="#DejaVuSans-Bold-70" transform="translate(308.105469 0)"/>
     <use xlink:href="#DejaVuSans-Bold-6f" transform="translate(379.6875 0)"/>
     <use xlink:href="#DejaVuSans-Bold-6c" transform="translate(448.388672 0)"/>
     <use xlink:href="#DejaVuSans-Bold-79" transform="translate(482.666016 0)"/>
    </g>
    <!-- Simulator -->
    <g style="fill: #2f3430" transform="translate(139.970063 172.508813) scale(0.12 -0.12)">
     <defs>
      <path id="DejaVuSans-Bold-53" d="M 3834 4519 
L 3834 3531 
Q 3450 3703 3084 3790 
Q 2719 3878 2394 3878 
Q 1963 3878 1756 3759 
Q 1550 3641 1550 3391 
Q 1550 3203 1689 3098 
Q 1828 2994 2194 2919 
L 2706 2816 
Q 3484 2659 3812 2340 
Q 4141 2022 4141 1434 
Q 4141 663 3683 286 
Q 3225 -91 2284 -91 
Q 1841 -91 1394 -6 
Q 947 78 500 244 
L 500 1259 
Q 947 1022 1364 901 
Q 1781 781 2169 781 
Q 2563 781 2772 912 
Q 2981 1044 2981 1288 
Q 2981 1506 2839 1625 
Q 2697 1744 2272 1838 
L 1806 1941 
Q 1106 2091 782 2419 
Q 459 2747 459 3303 
Q 459 4000 909 4375 
Q 1359 4750 2203 4750 
Q 2588 4750 2994 4692 
Q 3400 4634 3834 4519 
z
" transform="scale(0.015625)"/>
      <path id="DejaVuSans-Bold-69" d="M 538 3500 
L 1656 3500 
L 1656 0 
L 538 0 
L 538 3500 
z
M 538 4863 
L 1656 4863 
L 1656 3950 
L 538 3950 
L 538 4863 
z
" transform="scale(0.015625)"/>
      <path id="DejaVuSans-Bold-6d" d="M 3781 2919 
Q 3994 3244 4286 3414 
Q 4578 3584 4928 3584 
Q 5531 3584 5847 3212 
Q 6163 2841 6163 2131 
L 6163 0 
L 5038 0 
L 5038 1825 
Q 5041 1866 5042 1909 
Q 5044 1953 5044 2034 
Q 5044 2406 4934 2573 
Q 4825 2741 4581 2741 
Q 4263 2741 4089 2478 
Q 3916 2216 3909 1719 
L 3909 0 
L 2784 0 
L 2784 1825 
Q 2784 2406 2684 2573 
Q 2584 2741 2328 2741 
Q 2006 2741 1831 2477 
Q 1656 2213 1656 1722 
L 1656 0 
L 531 0 
L 531 3500 
L 1656 3500 
L 1656 2988 
Q 1863 3284 2130 3434 
Q 2397 3584 2719 3584 
Q 3081 3584 3359 3409 
Q 3638 3234 3781 2919 
z
" transform="scale(0.015625)"/>
      <path id="DejaVuSans-Bold-75" d="M 500 1363 
L 500 3500 
L 1625 3500 
L 1625 3150 
Q 1625 2866 1622 2436 
Q 1619 2006 1619 1863 
Q 1619 1441 1641 1255 
Q 1663 1069 1716 984 
Q 1784 875 1895 815 
Q 2006 756 2150 756 
Q 2500 756 2700 1025 
Q 2900 1294 2900 1772 
L 2900 3500 
L 4019 3500 
L 4019 0 
L 2900 0 
L 2900 506 
Q 2647 200 2364 54 
Q 2081 -91 1741 -91 
Q 1134 -91 817 281 
Q 500 653 500 1363 
z
" transform="scale(0.015625)"/>
      <path id="DejaVuSans-Bold-61" d="M 2106 1575 
Q 1756 1575 1579 1456 
Q 1403 1338 1403 1106 
Q 1403 894 1545 773 
Q 1688 653 1941 653 
Q 2256 653 2472 879 
Q 2688 1106 2688 1447 
L 2688 1575 
L 2106 1575 
z
M 3816 1997 
L 3816 0 
L 2688 0 
L 2688 519 
Q 2463 200 2181 54 
Q 1900 -91 1497 -91 
Q 953 -91 614 226 
Q 275 544 275 1050 
Q 275 1666 698 1953 
Q 1122 2241 2028 2241 
L 2688 2241 
L 2688 2328 
Q 2688 2594 2478 2717 
Q 2269 2841 1825 2841 
Q 1466 2841 1156 2769 
Q 847 2697 581 2553 
L 581 3406 
Q 941 3494 1303 3539 
Q 1666 3584 2028 3584 
Q 2975 3584 3395 3211 
Q 3816 2838 3816 1997 
z
" transform="scale(0.015625)"/>
      <path id="DejaVuSans-Bold-74" d="M 1759 4494 
L 1759 3500 
L 2913 3500 
L 2913 2700 
L 1759 2700 
L 1759 1216 
Q 1759 972 1856 886 
Q 1953 800 2241 800 
L 2816 800 
L 2816 0 
L 1856 0 
Q 1194 0 917 276 
Q 641 553 641 1216 
L 641 2700 
L 84 2700 
L 84 3500 
L 641 3500 
L 641 4494 
L 1759 4494 
z
" transform="scale(0.015625)"/>
      <path id="DejaVuSans-Bold-72" d="M 3138 2547 
Q 2991 2616 2845 2648 
Q 2700 2681 2553 2681 
Q 2122 2681 1889 2404 
Q 1656 2128 1656 1613 
L 1656 0 
L 538 0 
L 538 3500 
L 1656 3500 
L 1656 2925 
Q 1872 3269 2151 3426 
Q 2431 3584 2822 3584 
Q 2878 3584 2943 3579 
Q 3009 3575 3134 3559 
L 3138 2547 
z
" transform="scale(0.015625)"/>
     </defs>
     <use xlink:href="#DejaVuSans-Bold-53"/>
     <use xlink:href="#DejaVuSans-Bold-69" transform="translate(72.021484 0)"/>
     <use xlink:href="#DejaVuSans-Bold-6d" transform="translate(106.298828 0)"/>
     <use xlink:href="#DejaVuSans-Bold-75" transform="translate(210.498047 0)"/>
     <use xlink:href="#DejaVuSans-Bold-6c" transform="translate(281.689453 0)"/>
     <use xlink:href="#DejaVuSans-Bold-61" transform="translate(315.966797 0)"/>
     <use xlink:href="#DejaVuSans-Bold-74" transform="translate(383.447266 0)"/>
     <use xlink:href="#DejaVuSans-Bold-6f" transform="translate(431.25 0)"/>
     <use xlink:href="#DejaVuSans-Bold-72" transform="translate(499.951172 0)"/>
    </g>
   </g>
   <g id="text_5">
    <!-- Dataset -->
    <g style="fill: #2f3430" transform="translate(428.818688 159.024563) scale(0.12 -0.12)">
     <defs>
      <path id="DejaVuSans-Bold-73" d="M 3272 3391 
L 3272 2541 
Q 2913 2691 2578 2766 
Q 2244 2841 1947 2841 
Q 1628 2841 1473 2761 
Q 1319 2681 1319 2516 
Q 1319 2381 1436 2309 
Q 1553 2238 1856 2203 
L 2053 2175 
Q 2913 2066 3209 1816 
Q 3506 1566 3506 1031 
Q 3506 472 3093 190 
Q 2681 -91 1863 -91 
Q 1516 -91 1145 -36 
Q 775 19 384 128 
L 384 978 
Q 719 816 1070 734 
Q 1422 653 1784 653 
Q 2113 653 2278 743 
Q 2444 834 2444 1013 
Q 2444 1163 2330 1236 
Q 2216 1309 1875 1350 
L 1678 1375 
Q 931 1469 631 1722 
Q 331 1975 331 2491 
Q 331 3047 712 3315 
Q 1094 3584 1881 3584 
Q 2191 3584 2531 3537 
Q 2872 3491 3272 3391 
z
" transform="scale(0.015625)"/>
      <path id="DejaVuSans-Bold-65" d="M 4031 1759 
L 4031 1441 
L 1416 1441 
Q 1456 1047 1700 850 
Q 1944 653 2381 653 
Q 2734 653 3104 758 
Q 3475 863 3866 1075 
L 3866 213 
Q 3469 63 3072 -14 
Q 2675 -91 2278 -91 
Q 1328 -91 801 392 
Q 275 875 275 1747 
Q 275 2603 792 3093 
Q 1309 3584 2216 3584 
Q 3041 3584 3536 3087 
Q 4031 2591 4031 1759 
z
M 2881 2131 
Q 2881 2450 2695 2645 
Q 2509 2841 2209 2841 
Q 1884 2841 1681 2658 
Q 1478 2475 1428 2131 
L 2881 2131 
z
" transform="scale(0.015625)"/>
     </defs>
     <use xlink:href="#DejaVuSans-Bold-44"/>
     <use xlink:href="#DejaVuSans-Bold-61" transform="translate(83.007812 0)"/>
     <use xlink:href="#DejaVuSans-Bold-74" transform="translate(150.488281 0)"/>
     <use xlink:href="#DejaVuSans-Bold-61" transform="translate(198.291016 0)"/>
     <use xlink:href="#DejaVuSans-Bold-73" transform="translate(265.771484 0)"/>
     <use xlink:href="#DejaVuSans-Bold-65" transform="translate(325.292969 0)"/>
     <use xlink:href="#DejaVuSans-Bold-74" transform="translate(393.115234 0)"/>
    </g>
    <!-- Generation -->
    <g style="fill: #2f3430" transform="translate(417.61275 172.461938) scale(0.12 -0.12)">
     <use xlink:href="#DejaVuSans-Bold-47"/>
     <use xlink:href="#DejaVuSans-Bold-65" transform="translate(82.080078 0)"/>
     <use xlink:href="#DejaVuSans-Bold-6e" transform="translate(149.902344 0)"/>
     <use xlink:href="#DejaVuSans-Bold-65" transform="translate(221.09375 0)"/>
     <use xlink:href="#DejaVuSans-Bold-72" transform="translate(288.916016 0)"/>
     <use xlink:href="#DejaVuSans-Bold-61" transform="translate(338.232422 0)"/>
     <use xlink:href="#DejaVuSans-Bold-74" transform="translate(405.712891 0)"/>
     <use xlink:href="#DejaVuSans-Bold-69" transform="translate(453.515625 0)"/>
     <use xlink:href="#DejaVuSans-Bold-6f" transform="translate(487.792969 0)"/>
     <use xlink:href="#DejaVuSans-Bold-6e" transform="translate(556.494141 0)"/>
    </g>
   </g>
   <g id="patch_9">
    <path d="M 283.273633 162.432 
Q 314.100884 162.432 343.586494 162.432 
" style="fill: none; stroke: #7a8673; stroke-width: 1.2; stroke-linecap: round"/>
    <path d="M 339.586494 160.432 
L 343.586494 162.432 
L 339.586494 164.432 
z
" style="fill: #7a8673; stroke: #7a8673; stroke-width: 1.2; stroke-linecap: round"/>
   </g>
   <g id="text_6">
    <!-- DATA PROCESSING -->
    <g style="fill: #6d8066" transform="translate(256.633594 237.760344) scale(0.11 -0.11)">
     <defs>
      <path id="DejaVuSans-Bold-50" d="M 588 4666 
L 2584 4666 
Q 3475 4666 3951 4270 
Q 4428 3875 4428 3144 
Q 4428 2409 3951 2014 
Q 3475 1619 2584 1619 
L 1791 1619 
L 1791 0 
L 588 0 
L 588 4666 
z
M 1791 3794 
L 1791 2491 
L 2456 2491 
Q 2806 2491 2997 2661 
Q 3188 2831 3188 3144 
Q 3188 3456 2997 3625 
Q 2806 3794 2456 3794 
L 1791 3794 
z
" transform="scale(0.015625)"/>
      <path id="DejaVuSans-Bold-43" d="M 4288 256 
Q 3956 84 3597 -3 
Q 3238 -91 2847 -91 
Q 1681 -91 1000 561 
Q 319 1213 319 2328 
Q 319 3447 1000 4098 
Q 1681 4750 2847 4750 
Q 3238 4750 3597 4662 
Q 3956 4575 4288 4403 
L 4288 3438 
Q 3953 3666 3628 3772 
Q 3303 3878 2944 3878 
Q 2300 3878 1931 3465 
Q 1563 3053 1563 2328 
Q 1563 1606 1931 1193 
Q 2300 781 2944 781 
Q 3303 781 3628 887 
Q 3953 994 4288 1222 
L 4288 256 
z
" transform="scale(0.015625)"/>
     </defs>
     <use xlink:href="#DejaVuSans-Bold-44"/>
     <use xlink:href="#DejaVuSans-Bold-41" transform="translate(83.007812 0)"/>
     <use xlink:href="#DejaVuSans-Bold-54" transform="translate(152.650391 0)"/>
     <use xlink:href="#DejaVuSans-Bold-41" transform="translate(213.113281 0)"/>
     <use xlink:href="#DejaVuSans-Bold-20" transform="translate(290.505859 0)"/>
     <use xlink:href="#DejaVuSans-Bold-50" transform="translate(325.320312 0)"/>
     <use xlink:href="#DejaVuSans-Bold-52" transform="translate(398.611328 0)"/>
     <use xlink:href="#DejaVuSans-Bold-4f" transform="translate(475.613281 0)"/>
     <use xlink:href="#DejaVuSans-Bold-43" transform="translate(560.623047 0)"/>
     <use xlink:href="#DejaVuSans-Bold-45" transform="translate(634.011719 0)"/>
     <use xlink:href="#DejaVuSans-Bold-53" transform="translate(702.322266 0)"/>
     <use xlink:href="#DejaVuSans-Bold-53" transform="translate(769.84375 0)"/>
     <use xlink:href="#DejaVuSans-Bold-49" transform="translate(841.865234 0)"/>
     <use xlink:href="#DejaVuSans-Bold-4e" transform="translate(879.072266 0)"/>
     <use xlink:href="#DejaVuSans-Bold-47" transform="translate(962.763672 0)"/>
    </g>
   </g>
   <g id="text_7">
    <!-- Databricks Processing -->
    <g style="fill: #2f3430" transform="translate(238.76625 298.752375) scale(0.12 -0.12)">
     <defs>
      <path id="DejaVuSans-Bold-62" d="M 2400 722 
Q 2759 722 2948 984 
Q 3138 1247 3138 1747 
Q 3138 2247 2948 2509 
Q 2759 2772 2400 2772 
Q 2041 2772 1848 2508 
Q 1656 2244 1656 1747 
Q 1656 1250 1848 986 
Q 2041 722 2400 722 
z
M 1656 2988 
Q 1888 3294 2169 3439 
Q 2450 3584 2816 3584 
Q 3463 3584 3878 3070 
Q 4294 2556 4294 1747 
Q 4294 938 3878 423 
Q 3463 -91 2816 -91 
Q 2450 -91 2169 54 
Q 1888 200 1656 506 
L 1656 0 
L 538 0 
L 538 4863 
L 1656 4863 
L 1656 2988 
z
" transform="scale(0.015625)"/>
      <path id="DejaVuSans-Bold-63" d="M 3366 3391 
L 3366 2478 
Q 3138 2634 2908 2709 
Q 2678 2784 2431 2784 
Q 1963 2784 1702 2511 
Q 1441 2238 1441 1747 
Q 1441 1256 1702 982 
Q 1963 709 2431 709 
Q 2694 709 2930 787 
Q 3166 866 3366 1019 
L 3366 103 
Q 3103 6 2833 -42 
Q 2563 -91 2291 -91 
Q 1344 -91 809 395 
Q 275 881 275 1747 
Q 275 2613 809 3098 
Q 1344 3584 2291 3584 
Q 2566 3584 2833 3536 
Q 3100 3488 3366 3391 
z
" transform="scale(0.015625)"/>
      <path id="DejaVuSans-Bold-6b" d="M 538 4863 
L 1656 4863 
L 1656 2216 
L 2944 3500 
L 4244 3500 
L 2534 1894 
L 4378 0 
L 3022 0 
L 1656 1459 
L 1656 0 
L 538 0 
L 538 4863 
z
" transform="scale(0.015625)"/>
      <path id="DejaVuSans-Bold-67" d="M 2919 594 
Q 2688 288 2409 144 
Q 2131 0 1766 0 
Q 1125 0 706 504 
Q 288 1009 288 1791 
Q 288 2575 706 3076 
Q 1125 3578 1766 3578 
Q 2131 3578 2409 3434 
Q 2688 3291 2919 2981 
L 2919 3500 
L 4044 3500 
L 4044 353 
Q 4044 -491 3511 -936 
Q 2978 -1381 1966 -1381 
Q 1638 -1381 1331 -1331 
Q 1025 -1281 716 -1178 
L 716 -306 
Q 1009 -475 1290 -558 
Q 1572 -641 1856 -641 
Q 2406 -641 2662 -400 
Q 2919 -159 2919 353 
L 2919 594 
z
M 2181 2772 
Q 1834 2772 1640 2515 
Q 1447 2259 1447 1791 
Q 1447 1309 1634 1061 
Q 1822 813 2181 813 
Q 2531 813 2725 1069 
Q 2919 1325 2919 1791 
Q 2919 2259 2725 2515 
Q 2531 2772 2181 2772 
z
" transform="scale(0.015625)"/>
     </defs>
     <use xlink:href="#DejaVuSans-Bold-44"/>
     <use xlink:href="#DejaVuSans-Bold-61" transform="translate(83.007812 0)"/>
     <use xlink:href="#DejaVuSans-Bold-74" transform="translate(150.488281 0)"/>
     <use xlink:href="#DejaVuSans-Bold-61" transform="translate(198.291016 0)"/>
     <use xlink:href="#DejaVuSans-Bold-62" transform="translate(265.771484 0)"/>
     <use xlink:href="#DejaVuSans-Bold-72" transform="translate(337.353516 0)"/>
     <use xlink:href="#DejaVuSans-Bold-69" transform="translate(386.669922 0)"/>
     <use xlink:href="#DejaVuSans-Bold-63" transform="translate(420.947266 0)"/>
     <use xlink:href="#DejaVuSans-Bold-6b" transform="translate(480.224609 0)"/>
     <use xlink:href="#DejaVuSans-Bold-73" transform="translate(546.728516 0)"/>
     <use xlink:href="#DejaVuSans-Bold-20" transform="translate(606.25 0)"/>
     <use xlink:href="#DejaVuSans-Bold-50" transform="translate(641.064453 0)"/>
     <use xlink:href="#DejaVuSans-Bold-72" transform="translate(714.355469 0)"/>
     <use xlink:href="#DejaVuSans-Bold-6f" transform="translate(763.671875 0)"/>
     <use xlink:href="#DejaVuSans-Bold-63" transform="translate(832.373047 0)"/>
     <use xlink:href="#DejaVuSans-Bold-65" transform="translate(891.650391 0)"/>
     <use xlink:href="#DejaVuSans-Bold-73" transform="translate(959.472656 0)"/>
     <use xlink:href="#DejaVuSans-Bold-73" transform="translate(1018.994141 0)"/>
     <use xlink:href="#DejaVuSans-Bold-69" transform="translate(1078.515625 0)"/>
     <use xlink:href="#DejaVuSans-Bold-6e" transform="translate(1112.792969 0)"/>
     <use xlink:href="#DejaVuSans-Bold-67" transform="translate(1183.984375 0)"/>
    </g>
   </g>
   <g id="patch_10">
    <path d="M 314.1 193.381996 
Q 314.1 228.958787 314.1 263.193937 
" style="fill: none; stroke: #7a8673; stroke-width: 1.2; stroke-linecap: round"/>
    <path d="M 316.1 259.193937 
L 314.1 263.193937 
L 312.1 259.193937 
z
" style="fill: #7a8673; stroke: #7a8673; stroke-width: 1.2; stroke-linecap: round"/>
   </g>
   <g id="text_8">
    <!-- ANALYTICS -->
    <g style="fill: #6d8066" transform="translate(280.458047 381.904344) scale(0.11 -0.11)">
     <defs>
      <path id="DejaVuSans-Bold-4c" d="M 588 4666 
L 1791 4666 
L 1791 909 
L 3903 909 
L 3903 0 
L 588 0 
L 588 4666 
z
" transform="scale(0.015625)"/>
      <path id="DejaVuSans-Bold-59" d="M -63 4666 
L 1253 4666 
L 2316 3003 
L 3378 4666 
L 4697 4666 
L 2919 1966 
L 2919 0 
L 1716 0 
L 1716 1966 
L -63 4666 
z
" transform="scale(0.015625)"/>
     </defs>
     <use xlink:href="#DejaVuSans-Bold-41"/>
     <use xlink:href="#DejaVuSans-Bold-4e" transform="translate(77.392578 0)"/>
     <use xlink:href="#DejaVuSans-Bold-41" transform="translate(161.083984 0)"/>
     <use xlink:href="#DejaVuSans-Bold-4c" transform="translate(238.476562 0)"/>
     <use xlink:href="#DejaVuSans-Bold-59" transform="translate(286.572266 0)"/>
     <use xlink:href="#DejaVuSans-Bold-54" transform="translate(358.984375 0)"/>
     <use xlink:href="#DejaVuSans-Bold-49" transform="translate(427.197266 0)"/>
     <use xlink:href="#DejaVuSans-Bold-43" transform="translate(464.404297 0)"/>
     <use xlink:href="#DejaVuSans-Bold-53" transform="translate(539.667969 0)"/>
    </g>
   </g>
   <g id="text_9">
    <!-- Exploratory -->
    <g style="fill: #2f3430" transform="translate(130.546688 433.358812) scale(0.12 -0.12)">
     <defs>
      <path id="DejaVuSans-Bold-78" d="M 1422 1791 
L 159 3500 
L 1344 3500 
L 2059 2463 
L 2784 3500 
L 3969 3500 
L 2706 1797 
L 4031 0 
L 2847 0 
L 2059 1106 
L 1281 0 
L 97 0 
L 1422 1791 
z
" transform="scale(0.015625)"/>
     </defs>
     <use xlink:href="#DejaVuSans-Bold-45"/>
     <use xlink:href="#DejaVuSans-Bold-78" transform="translate(68.310547 0)"/>
     <use xlink:href="#DejaVuSans-Bold-70" transform="translate(132.8125 0)"/>
     <use xlink:href="#DejaVuSans-Bold-6c" transform="translate(204.394531 0)"/>
     <use xlink:href="#DejaVuSans-Bold-6f" transform="translate(238.671875 0)"/>
     <use xlink:href="#DejaVuSans-Bold-72" transform="translate(307.373047 0)"/>
     <use xlink:href="#DejaVuSans-Bold-61" transform="translate(356.689453 0)"/>
     <use xlink:href="#DejaVuSans-Bold-74" transform="translate(424.169922 0)"/>
     <use xlink:href="#DejaVuSans-Bold-6f" transform="translate(471.972656 0)"/>
     <use xlink:href="#DejaVuSans-Bold-72" transform="translate(540.673828 0)"/>
     <use xlink:href="#DejaVuSans-Bold-79" transform="translate(589.990234 0)"/>
    </g>
    <!-- Data Analysis -->
    <g style="fill: #2f3430" transform="translate(123.69075 446.889938) scale(0.12 -0.12)">
     <use xlink:href="#DejaVuSans-Bold-44"/>
     <use xlink:href="#DejaVuSans-Bold-61" transform="translate(83.007812 0)"/>
     <use xlink:href="#DejaVuSans-Bold-74" transform="translate(150.488281 0)"/>
     <use xlink:href="#DejaVuSans-Bold-61" transform="translate(198.291016 0)"/>
     <use xlink:href="#DejaVuSans-Bold-20" transform="translate(265.771484 0)"/>
     <use xlink:href="#DejaVuSans-Bold-41" transform="translate(300.585938 0)"/>
     <use xlink:href="#DejaVuSans-Bold-6e" transform="translate(377.978516 0)"/>
     <use xlink:href="#DejaVuSans-Bold-61" transform="translate(449.169922 0)"/>
     <use xlink:href="#DejaVuSans-Bold-6c" transform="translate(516.650391 0)"/>
     <use xlink:href="#DejaVuSans-Bold-79" transform="translate(550.927734 0)"/>
     <use xlink:href="#DejaVuSans-Bold-73" transform="translate(616.113281 0)"/>
     <use xlink:href="#DejaVuSans-Bold-69" transform="translate(675.634766 0)"/>
     <use xlink:href="#DejaVuSans-Bold-73" transform="translate(709.912109 0)"/>
    </g>
   </g>
   <g id="text_10">
    <!-- SQL -->
    <g style="fill: #2f3430" transform="translate(445.098 433.405687) scale(0.12 -0.12)">
     <defs>
      <path id="DejaVuSans-Bold-51" d="M 2847 -84 
L 2753 -84 
Q 1600 -84 959 553 
Q 319 1191 319 2328 
Q 319 3463 958 4106 
Q 1597 4750 2719 4750 
Q 3853 4750 4486 4112 
Q 5119 3475 5119 2328 
Q 5119 1541 4783 972 
Q 4447 403 3816 116 
L 4756 -934 
L 3609 -934 
L 2847 -84 
z
M 2719 3878 
Q 2169 3878 1866 3472 
Q 1563 3066 1563 2328 
Q 1563 1578 1859 1179 
Q 2156 781 2719 781 
Q 3272 781 3575 1187 
Q 3878 1594 3878 2328 
Q 3878 3066 3575 3472 
Q 3272 3878 2719 3878 
z
" transform="scale(0.015625)"/>
     </defs>
     <use xlink:href="#DejaVuSans-Bold-53"/>
     <use xlink:href="#DejaVuSans-Bold-51" transform="translate(72.021484 0)"/>
     <use xlink:href="#DejaVuSans-Bold-4c" transform="translate(157.03125 0)"/>
    </g>
    <!-- Analytics -->
    <g style="fill: #2f3430" transform="translate(427.358625 446.843063) scale(0.12 -0.12)">
     <use xlink:href="#DejaVuSans-Bold-41"/>
     <use xlink:href="#DejaVuSans-Bold-6e" transform="translate(77.392578 0)"/>
     <use xlink:href="#DejaVuSans-Bold-61" transform="translate(148.583984 0)"/>
     <use xlink:href="#DejaVuSans-Bold-6c" transform="translate(216.064453 0)"/>
     <use xlink:href="#DejaVuSans-Bold-79" transform="translate(250.341797 0)"/>
     <use xlink:href="#DejaVuSans-Bold-74" transform="translate(315.527344 0)"/>
     <use xlink:href="#DejaVuSans-Bold-69" transform="translate(363.330078 0)"/>
     <use xlink:href="#DejaVuSans-Bold-63" transform="translate(397.607422 0)"/>
     <use xlink:href="#DejaVuSans-Bold-73" transform="translate(456.884766 0)"/>
    </g>
   </g>
   <g id="patch_11">
    <path d="M 309.031158 323.650557 
Q 241.976507 366.175264 176.054865 407.981439 
" style="fill: none; stroke: #7a8673; stroke-width: 1.2; stroke-linecap: round"/>
    <path d="M 180.503973 407.528182 
L 176.054865 407.981439 
L 178.361724 404.150198 
z
" style="fill: #7a8673; stroke: #7a8673; stroke-width: 1.2; stroke-linecap: round"/>
   </g>
   <g id="patch_12">
    <path d="M 319.168842 323.650557 
Q 386.223493 366.175264 452.145135 407.981439 
" style="fill: none; stroke: #7a8673; stroke-width: 1.2; stroke-linecap: round"/>
    <path d="M 449.838276 404.150198 
L 452.145135 407.981439 
L 447.696027 407.528182 
z
" style="fill: #7a8673; stroke: #7a8673; stroke-width: 1.2; stroke-linecap: round"/>
   </g>
   <g id="text_11">
    <!-- Random Forest -->
    <g style="fill: #2f3430" transform="translate(262.95375 566.508563) scale(0.12 -0.12)">
     <defs>
      <path id="DejaVuSans-Bold-64" d="M 2919 2988 
L 2919 4863 
L 4044 4863 
L 4044 0 
L 2919 0 
L 2919 506 
Q 2688 197 2409 53 
Q 2131 -91 1766 -91 
Q 1119 -91 703 423 
Q 288 938 288 1747 
Q 288 2556 703 3070 
Q 1119 3584 1766 3584 
Q 2128 3584 2408 3439 
Q 2688 3294 2919 2988 
z
M 2181 722 
Q 2541 722 2730 984 
Q 2919 1247 2919 1747 
Q 2919 2247 2730 2509 
Q 2541 2772 2181 2772 
Q 1825 2772 1636 2509 
Q 1447 2247 1447 1747 
Q 1447 1247 1636 984 
Q 1825 722 2181 722 
z
" transform="scale(0.015625)"/>
      <path id="DejaVuSans-Bold-46" d="M 588 4666 
L 3834 4666 
L 3834 3756 
L 1791 3756 
L 1791 2888 
L 3713 2888 
L 3713 1978 
L 1791 1978 
L 1791 0 
L 588 0 
L 588 4666 
z
" transform="scale(0.015625)"/>
     </defs>
     <use xlink:href="#DejaVuSans-Bold-52"/>
     <use xlink:href="#DejaVuSans-Bold-61" transform="translate(77.001953 0)"/>
     <use xlink:href="#DejaVuSans-Bold-6e" transform="translate(144.482422 0)"/>
     <use xlink:href="#DejaVuSans-Bold-64" transform="translate(215.673828 0)"/>
     <use xlink:href="#DejaVuSans-Bold-6f" transform="translate(287.255859 0)"/>
     <use xlink:href="#DejaVuSans-Bold-6d" transform="translate(355.957031 0)"/>
     <use xlink:href="#DejaVuSans-Bold-20" transform="translate(460.15625 0)"/>
     <use xlink:href="#DejaVuSans-Bold-46" transform="translate(494.970703 0)"/>
     <use xlink:href="#DejaVuSans-Bold-6f" transform="translate(559.28125 0)"/>
     <use xlink:href="#DejaVuSans-Bold-72" transform="translate(627.982422 0)"/>
     <use xlink:href="#DejaVuSans-Bold-65" transform="translate(677.298828 0)"/>
     <use xlink:href="#DejaVuSans-Bold-73" transform="translate(745.121094 0)"/>
     <use xlink:href="#DejaVuSans-Bold-74" transform="translate(804.642578 0)"/>
    </g>
    <!-- Classifier -->
    <g style="fill: #2f3430" transform="translate(282.696563 579.945938) scale(0.12 -0.12)">
     <defs>
      <path id="DejaVuSans-Bold-66" d="M 2841 4863 
L 2841 4128 
L 2222 4128 
Q 1984 4128 1890 4042 
Q 1797 3956 1797 3744 
L 1797 3500 
L 2753 3500 
L 2753 2700 
L 1797 2700 
L 1797 0 
L 678 0 
L 678 2700 
L 122 2700 
L 122 3500 
L 678 3500 
L 678 3744 
Q 678 4316 997 4589 
Q 1316 4863 1984 4863 
L 2841 4863 
z
" transform="scale(0.015625)"/>
     </defs>
     <use xlink:href="#DejaVuSans-Bold-43"/>
     <use xlink:href="#DejaVuSans-Bold-6c" transform="translate(73.388672 0)"/>
     <use xlink:href="#DejaVuSans-Bold-61" transform="translate(107.666016 0)"/>
     <use xlink:href="#DejaVuSans-Bold-73" transform="translate(175.146484 0)"/>
     <use xlink:href="#DejaVuSans-Bold-73" transform="translate(234.667969 0)"/>
     <use xlink:href="#DejaVuSans-Bold-69" transform="translate(294.189453 0)"/>
     <use xlink:href="#DejaVuSans-Bold-66" transform="translate(328.466797 0)"/>
     <use xlink:href="#DejaVuSans-Bold-69" transform="translate(371.972656 0)"/>
     <use xlink:href="#DejaVuSans-Bold-65" transform="translate(406.25 0)"/>
     <use xlink:href="#DejaVuSans-Bold-72" transform="translate(474.072266 0)"/>
    </g>
   </g>
   <g id="patch_13">
    <path d="M 175.053498 464.803922 
Q 241.97769 503.387533 307.739572 541.301041 
" style="fill: none; stroke: #7a8673; stroke-width: 1.2; stroke-linecap: round"/>
    <path d="M 305.273166 537.570512 
L 307.739572 541.301041 
L 303.275306 541.035849 
z
" style="fill: #7a8673; stroke: #7a8673; stroke-width: 1.2; stroke-linecap: round"/>
   </g>
   <g id="patch_14">
    <path d="M 453.146502 464.803922 
Q 386.22231 503.387533 320.460428 541.301041 
" style="fill: none; stroke: #7a8673; stroke-width: 1.2; stroke-linecap: round"/>
    <path d="M 324.924694 541.035849 
L 320.460428 541.301041 
L 322.926834 537.570512 
z
" style="fill: #7a8673; stroke: #7a8673; stroke-width: 1.2; stroke-linecap: round"/>
   </g>
   <g id="text_12">
    <!-- PRESENTATION -->
    <g style="fill: #6d8066" transform="translate(267.522734 636.928344) scale(0.11 -0.11)">
     <use xlink:href="#DejaVuSans-Bold-50"/>
     <use xlink:href="#DejaVuSans-Bold-52" transform="translate(73.291016 0)"/>
     <use xlink:href="#DejaVuSans-Bold-45" transform="translate(150.292969 0)"/>
     <use xlink:href="#DejaVuSans-Bold-53" transform="translate(218.603516 0)"/>
     <use xlink:href="#DejaVuSans-Bold-45" transform="translate(290.625 0)"/>
     <use xlink:href="#DejaVuSans-Bold-4e" transform="translate(358.935547 0)"/>
     <use xlink:href="#DejaVuSans-Bold-54" transform="translate(442.626953 0)"/>
     <use xlink:href="#DejaVuSans-Bold-41" transform="translate(503.089844 0)"/>
     <use xlink:href="#DejaVuSans-Bold-54" transform="translate(572.732422 0)"/>
     <use xlink:href="#DejaVuSans-Bold-49" transform="translate(640.945312 0)"/>
     <use xlink:href="#DejaVuSans-Bold-4f" transform="translate(678.152344 0)"/>
     <use xlink:href="#DejaVuSans-Bold-4e" transform="translate(763.162109 0)"/>
    </g>
   </g>
   <g id="text_13">
    <!-- Interactive Dashboard -->
    <g style="fill: #2f3430" transform="translate(238.508438 709.05525) scale(0.12 -0.12)">
     <defs>
      <path id="DejaVuSans-Bold-76" d="M 97 3500 
L 1216 3500 
L 2088 1081 
L 2956 3500 
L 4078 3500 
L 2700 0 
L 1472 0 
L 97 3500 
z
" transform="scale(0.015625)"/>
      <path id="DejaVuSans-Bold-68" d="M 4056 2131 
L 4056 0 
L 2931 0 
L 2931 347 
L 2931 1625 
Q 2931 2084 2911 2256 
Q 2891 2428 2841 2509 
Q 2775 2619 2662 2680 
Q 2550 2741 2406 2741 
Q 2056 2741 1856 2470 
Q 1656 2200 1656 1722 
L 1656 0 
L 538 0 
L 538 4863 
L 1656 4863 
L 1656 2988 
Q 1909 3294 2193 3439 
Q 2478 3584 2822 3584 
Q 3428 3584 3742 3212 
Q 4056 2841 4056 2131 
z
" transform="scale(0.015625)"/>
     </defs>
     <use xlink:href="#DejaVuSans-Bold-49"/>
     <use xlink:href="#DejaVuSans-Bold-6e" transform="translate(37.207031 0)"/>
     <use xlink:href="#DejaVuSans-Bold-74" transform="translate(108.398438 0)"/>
     <use xlink:href="#DejaVuSans-Bold-65" transform="translate(156.201172 0)"/>
     <use xlink:href="#DejaVuSans-Bold-72" transform="translate(224.023438 0)"/>
     <use xlink:href="#DejaVuSans-Bold-61" transform="translate(273.339844 0)"/>
     <use xlink:href="#DejaVuSans-Bold-63" transform="translate(340.820312 0)"/>
     <use xlink:href="#DejaVuSans-Bold-74" transform="translate(400.097656 0)"/>
     <use xlink:href="#DejaVuSans-Bold-69" transform="translate(447.900391 0)"/>
     <use xlink:href="#DejaVuSans-Bold-76" transform="translate(482.177734 0)"/>
     <use xlink:href="#DejaVuSans-Bold-65" transform="translate(547.363281 0)"/>
     <use xlink:href="#DejaVuSans-Bold-20" transform="translate(615.185547 0)"/>
     <use xlink:href="#DejaVuSans-Bold-44" transform="translate(650 0)"/>
     <use xlink:href="#DejaVuSans-Bold-61" transform="translate(733.007812 0)"/>
     <use xlink:href="#DejaVuSans-Bold-73" transform="translate(800.488281 0)"/>
     <use xlink:href="#DejaVuSans-Bold-68" transform="translate(860.009766 0)"/>
     <use xlink:href="#DejaVuSans-Bold-62" transform="translate(931.201172 0)"/>
     <use xlink:href="#DejaVuSans-Bold-6f" transform="translate(1002.783203 0)"/>
     <use xlink:href="#DejaVuSans-Bold-61" transform="translate(1071.484375 0)"/>
     <use xlink:href="#DejaVuSans-Bold-72" transform="translate(1138.964844 0)"/>
     <use xlink:href="#DejaVuSans-Bold-64" transform="translate(1188.28125 0)"/>
    </g>
   </g>
   <g id="patch_15">
    <path d="M 314.1 600.861512 
Q 314.1 637.830725 314.1 673.458297 
" style="fill: none; stroke: #7a8673; stroke-width: 1.2; stroke-linecap: round"/>
    <path d="M 316.1 669.458297 
L 314.1 673.458297 
L 312.1 669.458297 
z
" style="fill: #7a8673; stroke: #7a8673; stroke-width: 1.2; stroke-linecap: round"/>
   </g>
   <g id="text_14">
    <!-- Figure 1. High-level architecture of the Monopoly Data Analytics solution. -->
    <g style="fill: #6b7468" transform="translate(125.778125 808.308) scale(0.1 -0.1)">
     <defs>
      <path id="DejaVuSerif-46" d="M 353 0 
L 353 331 
L 947 331 
L 947 4331 
L 353 4331 
L 353 4666 
L 4172 4666 
L 4172 3628 
L 3788 3628 
L 3788 4281 
L 1581 4281 
L 1581 2719 
L 3175 2719 
L 3175 3303 
L 3559 3303 
L 3559 1753 
L 3175 1753 
L 3175 2338 
L 1581 2338 
L 1581 331 
L 2328 331 
L 2328 0 
L 353 0 
z
" transform="scale(0.015625)"/>
      <path id="DejaVuSerif-31" d="M 909 0 
L 909 331 
L 1722 331 
L 1722 4213 
L 781 3603 
L 781 4013 
L 1919 4750 
L 2350 4750 
L 2350 331 
L 3163 331 
L 3163 0 
L 909 0 
z
" transform="scale(0.015625)"/>
      <path id="DejaVuSerif-2e" d="M 603 325 
Q 603 500 722 622 
Q 841 744 1019 744 
Q 1191 744 1312 622 
Q 1434 500 1434 325 
Q 1434 153 1312 31 
Q 1191 -91 1019 -91 
Q 841 -91 722 29 
Q 603 150 603 325 
z
" transform="scale(0.015625)"/>
      <path id="DejaVuSerif-61" d="M 2547 1044 
L 2547 1747 
L 1806 1747 
Q 1378 1747 1168 1562 
Q 959 1378 959 997 
Q 959 650 1171 447 
Q 1384 244 1747 244 
Q 2106 244 2326 466 
Q 2547 688 2547 1044 
z
M 3122 2075 
L 3122 331 
L 3634 331 
L 3634 0 
L 2547 0 
L 2547 359 
Q 2356 128 2106 18 
Q 1856 -91 1522 -91 
Q 969 -91 644 203 
Q 319 497 319 997 
Q 319 1513 691 1797 
Q 1063 2081 1741 2081 
L 2547 2081 
L 2547 2309 
Q 2547 2688 2317 2895 
Q 2088 3103 1672 3103 
Q 1328 3103 1125 2947 
Q 922 2791 872 2484 
L 575 2484 
L 575 3156 
Q 875 3284 1158 3348 
Q 1441 3413 1709 3413 
Q 2400 3413 2761 3070 
Q 3122 2728 3122 2075 
z
" transform="scale(0.015625)"/>
      <path id="DejaVuSerif-6f" d="M 1925 219 
Q 2388 219 2623 584 
Q 2859 950 2859 1663 
Q 2859 2375 2623 2739 
Q 2388 3103 1925 3103 
Q 1463 3103 1227 2739 
Q 991 2375 991 1663 
Q 991 950 1228 584 
Q 1466 219 1925 219 
z
M 1925 -91 
Q 1200 -91 759 389 
Q 319 869 319 1663 
Q 319 2456 758 2934 
Q 1197 3413 1925 3413 
Q 2653 3413 3092 2934 
Q 3531 2456 3531 1663 
Q 3531 869 3092 389 
Q 2653 -91 1925 -91 
z
" transform="scale(0.015625)"/>
      <path id="DejaVuSerif-66" d="M 2753 4078 
L 2450 4078 
Q 2447 4313 2317 4434 
Q 2188 4556 1941 4556 
Q 1619 4556 1487 4379 
Q 1356 4203 1356 3750 
L 1356 3322 
L 2284 3322 
L 2284 2988 
L 1356 2988 
L 1356 331 
L 2094 331 
L 2094 0 
L 231 0 
L 231 331 
L 781 331 
L 781 2988 
L 231 2988 
L 231 3322 
L 781 3322 
L 781 3738 
Q 781 4294 1070 4578 
Q 1359 4863 1919 4863 
Q 2128 4863 2337 4825 
Q 2547 4788 2753 4709 
L 2753 4078 
z
" transform="scale(0.015625)"/>
      <path id="DejaVuSerif-4d" d="M 353 0 
L 353 331 
L 947 331 
L 947 4331 
L 319 4331 
L 319 4666 
L 1678 4666 
L 3316 1344 
L 4953 4666 
L 6228 4666 
L 6228 4331 
L 5606 4331 
L 5606 331 
L 6203 331 
L 6203 0 
L 4378 0 
L 4378 331 
L 4972 331 
L 4972 3938 
L 3372 684 
L 2931 684 
L 1331 3938 
L 1331 331 
L 1925 331 
L 1925 0 
L 353 0 
z
" transform="scale(0.015625)"/>
      <path id="DejaVuSerif-6e" d="M 263 0 
L 263 331 
L 781 331 
L 781 2988 
L 231 2988 
L 231 3322 
L 1356 3322 
L 1356 2731 
Q 1516 3069 1770 3241 
Q 2025 3413 2363 3413 
Q 2913 3413 3172 3097 
Q 3431 2781 3431 2113 
L 3431 331 
L 3944 331 
L 3944 0 
L 2356 0 
L 2356 331 
L 2853 331 
L 2853 1931 
Q 2853 2541 2703 2767 
Q 2553 2994 2175 2994 
Q 1775 2994 1565 2701 
Q 1356 2409 1356 1850 
L 1356 331 
L 1856 331 
L 1856 0 
L 263 0 
z
" transform="scale(0.015625)"/>
      <path id="DejaVuSerif-70" d="M 1313 1825 
L 1313 1497 
Q 1313 897 1542 583 
Q 1772 269 2209 269 
Q 2650 269 2876 622 
Q 3103 975 3103 1663 
Q 3103 2353 2876 2703 
Q 2650 3053 2209 3053 
Q 1772 3053 1542 2737 
Q 1313 2422 1313 1825 
z
M 738 2988 
L 184 2988 
L 184 3322 
L 1313 3322 
L 1313 2803 
Q 1481 3116 1742 3264 
Q 2003 3413 2388 3413 
Q 3000 3413 3387 2928 
Q 3775 2444 3775 1663 
Q 3775 881 3387 395 
Q 3000 -91 2388 -91 
Q 2003 -91 1742 57 
Q 1481 206 1313 519 
L 1313 -997 
L 1856 -997 
L 1856 -1331 
L 184 -1331 
L 184 -997 
L 738 -997 
L 738 2988 
z
" transform="scale(0.015625)"/>
      <path id="DejaVuSerif-44" d="M 1581 331 
L 2163 331 
Q 3072 331 3558 850 
Q 4044 1369 4044 2338 
Q 4044 3306 3559 3818 
Q 3075 4331 2163 4331 
L 1581 4331 
L 1581 331 
z
M 353 0 
L 353 331 
L 947 331 
L 947 4331 
L 353 4331 
L 353 4666 
L 2209 4666 
Q 3416 4666 4089 4050 
Q 4763 3434 4763 2338 
Q 4763 1238 4088 619 
Q 3413 0 2209 0 
L 353 0 
z
" transform="scale(0.015625)"/>
     </defs>
     <use xlink:href="#DejaVuSerif-46"/>
     <use xlink:href="#DejaVuSerif-69" transform="translate(69.384766 0)"/>
     <use xlink:href="#DejaVuSerif-67" transform="translate(101.367188 0)"/>
     <use xlink:href="#DejaVuSerif-75" transform="translate(165.380859 0)"/>
     <use xlink:href="#DejaVuSerif-72" transform="translate(229.785156 0)"/>
     <use xlink:href="#DejaVuSerif-65" transform="translate(277.587891 0)"/>
     <use xlink:href="#DejaVuSerif-20" transform="translate(336.767578 0)"/>
     <use xlink:href="#DejaVuSerif-31" transform="translate(368.554688 0)"/>
     <use xlink:href="#DejaVuSerif-2e" transform="translate(432.177734 0)"/>
     <use xlink:href="#DejaVuSerif-20" transform="translate(463.964844 0)"/>
     <use xlink:href="#DejaVuSerif-48" transform="translate(495.751953 0)"/>
     <use xlink:href="#DejaVuSerif-69" transform="translate(582.958984 0)"/>
     <use xlink:href="#DejaVuSerif-67" transform="translate(614.941406 0)"/>
     <use xlink:href="#DejaVuSerif-68" transform="translate(678.955078 0)"/>
     <use xlink:href="#DejaVuSerif-2d" transform="translate(743.359375 0)"/>
     <use xlink:href="#DejaVuSerif-6c" transform="translate(777.148438 0)"/>
     <use xlink:href="#DejaVuSerif-65" transform="translate(809.130859 0)"/>
     <use xlink:href="#DejaVuSerif-76" transform="translate(868.310547 0)"/>
     <use xlink:href="#DejaVuSerif-65" transform="translate(924.804688 0)"/>
     <use xlink:href="#DejaVuSerif-6c" transform="translate(983.984375 0)"/>
     <use xlink:href="#DejaVuSerif-20" transform="translate(1015.966797 0)"/>
     <use xlink:href="#DejaVuSerif-61" transform="translate(1047.753906 0)"/>
     <use xlink:href="#DejaVuSerif-72" transform="translate(1107.373047 0)"/>
     <use xlink:href="#DejaVuSerif-63" transform="translate(1155.175781 0)"/>
     <use xlink:href="#DejaVuSerif-68" transform="translate(1211.181641 0)"/>
     <use xlink:href="#DejaVuSerif-69" transform="translate(1275.585938 0)"/>
     <use xlink:href="#DejaVuSerif-74" transform="translate(1307.568359 0)"/>
     <use xlink:href="#DejaVuSerif-65" transform="translate(1347.753906 0)"/>
     <use xlink:href="#DejaVuSerif-63" transform="translate(1406.933594 0)"/>
     <use xlink:href="#DejaVuSerif-74" transform="translate(1462.939453 0)"/>
     <use xlink:href="#DejaVuSerif-75" transform="translate(1503.125 0)"/>
     <use xlink:href="#DejaVuSerif-72" transform="translate(1567.529297 0)"/>
     <use xlink:href="#DejaVuSerif-65" transform="translate(1615.332031 0)"/>
     <use xlink:href="#DejaVuSerif-20" transform="translate(1674.511719 0)"/>
     <use xlink:href="#DejaVuSerif-6f" transform="translate(1706.298828 0)"/>
     <use xlink:href="#DejaVuSerif-66" transform="translate(1766.503906 0)"/>
     <use xlink:href="#DejaVuSerif-20" transform="translate(1803.515625 0)"/>
     <use xlink:href="#DejaVuSerif-74" transform="translate(1835.302734 0)"/>
     <use xlink:href="#DejaVuSerif-68" transform="translate(1875.488281 0)"/>
     <use xlink:href="#DejaVuSerif-65" transform="translate(1939.892578 0)"/>
     <use xlink:href="#DejaVuSerif-20" transform="translate(1999.072266 0)"/>
     <use xlink:href="#DejaVuSerif-4d" transform="translate(2030.859375 0)"/>
     <use xlink:href="#DejaVuSerif-6f" transform="translate(2133.251953 0)"/>
     <use xlink:href="#DejaVuSerif-6e" transform="translate(2193.457031 0)"/>
     <use xlink:href="#DejaVuSerif-6f" transform="translate(2257.861328 0)"/>
     <use xlink:href="#DejaVuSerif-70" transform="translate(2318.066406 0)"/>
     <use xlink:href="#DejaVuSerif-6f" transform="translate(2382.080078 0)"/>
     <use xlink:href="#DejaVuSerif-6c" transform="translate(2442.285156 0)"/>
     <use xlink:href="#DejaVuSerif-79" transform="translate(2474.267578 0)"/>
     <use xlink:href="#DejaVuSerif-20" transform="translate(2530.761719 0)"/>
     <use xlink:href="#DejaVuSerif-44" transform="translate(2562.548828 0)"/>
     <use xlink:href="#DejaVuSerif-61" transform="translate(2642.724609 0)"/>
     <use xlink:href="#DejaVuSerif-74" transform="translate(2702.34375 0)"/>
     <use xlink:href="#DejaVuSerif-61" transform="translate(2742.529297 0)"/>
     <use xlink:href="#DejaVuSerif-20" transform="translate(2802.148438 0)"/>
     <use xlink:href="#DejaVuSerif-41" transform="translate(2833.935547 0)"/>
     <use xlink:href="#DejaVuSerif-6e" transform="translate(2906.152344 0)"/>
     <use xlink:href="#DejaVuSerif-61" transform="translate(2970.556641 0)"/>
     <use xlink:href="#DejaVuSerif-6c" transform="translate(3030.175781 0)"/>
     <use xlink:href="#DejaVuSerif-79" transform="translate(3062.158203 0)"/>
     <use xlink:href="#DejaVuSerif-74" transform="translate(3118.652344 0)"/>
     <use xlink:href="#DejaVuSerif-69" transform="translate(3158.837891 0)"/>
     <use xlink:href="#DejaVuSerif-63" transform="translate(3190.820312 0)"/>
     <use xlink:href="#DejaVuSerif-73" transform="translate(3246.826172 0)"/>
     <use xlink:href="#DejaVuSerif-20" transform="translate(3298.144531 0)"/>
     <use xlink:href="#DejaVuSerif-73" transform="translate(3329.931641 0)"/>
     <use xlink:href="#DejaVuSerif-6f" transform="translate(3381.25 0)"/>
     <use xlink:href="#DejaVuSerif-6c" transform="translate(3441.455078 0)"/>
     <use xlink:href="#DejaVuSerif-75" transform="translate(3473.4375 0)"/>
     <use xlink:href="#DejaVuSerif-74" transform="translate(3537.841797 0)"/>
     <use xlink:href="#DejaVuSerif-69" transform="translate(3578.027344 0)"/>
     <use xlink:href="#DejaVuSerif-6f" transform="translate(3610.009766 0)"/>
     <use xlink:href="#DejaVuSerif-6e" transform="translate(3670.214844 0)"/>
     <use xlink:href="#DejaVuSerif-2e" transform="translate(3734.619141 0)"/>
    </g>
   </g>
  </g>
 </g>
 <defs>
  <clipPath id="pffedb039d2">
   <rect x="7.2" y="7.2" width="613.8" height="831.6"/>
  </clipPath>
 </defs>
</svg>
